#N canvas 920 265 967 667 10;
#X obj 37 37 import mrpeach;
#X text 236 132 115200 est le baud rate. Vous pourriez avoir à le
changer également.;
#X text 160 423 Décode les paquets SLIP et forme des listes. (Merci
Monsieur Pêche!);
#X obj 43 425 mrpeach/slipdec;
#X msg -63 98 devices;
#X text 154 35 Importer les objets de Monsieur Pêche. (PD-extended
seulement).;
#X text -53 80 Obtenir la liste des ports usb.;
#X msg 172 178 close;
#X text 220 179 Fermer le port.;
#X obj 415 349 mrpeach/slipenc;
#X obj 415 325 pack f f f;
#X obj 428 177 hsl 256 15 0 255 0 0 empty empty empty -2 -8 0 10 -262144
-1 -1 200 1;
#X obj 428 209 int;
#X obj 465 256 t b a;
#X obj 474 205 hsl 256 15 0 255 0 0 empty empty empty -2 -8 0 10 -262144
-1 -1 25500 1;
#X obj 465 232 int;
#X obj 529 280 t b a;
#X obj 532 234 hsl 256 15 0 255 0 0 empty empty empty -2 -8 0 10 -262144
-1 -1 25500 1;
#X obj 529 256 int;
#X msg 181 99 open 4;
#X text 238 90 Ouvrir une connexion série. Le numéro ou le nom du
port série utilisé sera sans doute différent pour vous. Remplacez
4 par le numéro du port série que vous utilisez.;
#X text 523 316 En utilisant le protocole SLIP \, envoyer trois valeurs
entre 0 et 255 au port série.;
#X obj 43 496 << 8;
#X obj 46 545 |;
#X floatatom 54 591 5 0 0 0 - - -, f 5;
#X obj 43 392 comport/comport 4 115200;
#X obj 141 572 >> 2;
#X floatatom 136 592 5 0 0 0 - - -, f 5;
#X obj 43 460 unpack f f;
#X text 179 570 Division par 4 (plus efficace).;
#X text 176 594 Connecter cette boîte à un slider pour contrôler
une LED avec le capteur.;
#X connect 3 0 28 0;
#X connect 4 0 25 0;
#X connect 7 0 25 0;
#X connect 9 0 25 0;
#X connect 10 0 9 0;
#X connect 11 0 12 0;
#X connect 12 0 10 0;
#X connect 13 0 10 0;
#X connect 13 1 10 1;
#X connect 14 0 15 0;
#X connect 15 0 13 0;
#X connect 16 0 10 0;
#X connect 16 1 10 2;
#X connect 17 0 18 0;
#X connect 18 0 16 0;
#X connect 19 0 25 0;
#X connect 22 0 23 0;
#X connect 23 0 24 0;
#X connect 23 0 26 0;
#X connect 25 0 3 0;
#X connect 26 0 27 0;
#X connect 28 0 22 0;
#X connect 28 1 23 1;
