#N canvas 885 174 1351 692 10;
#X msg 172 56 info;
#X text 96 8 Pour ma Wacom Intuos 4 4X5;
#X obj 97 133 route abs key;
#X obj 112 112 print;
#X msg 136 390 values \$1 \$2;
#X obj 167 332 + 20320;
#X text 240 -130 Linux seulement: déconnecter la tablette du pointeur.
;
#X obj 670 336 vsl 15 200 0 255 0 0 empty empty Pression 0 -9 0 10
-4160 -258113 -4160 0 1;
#X obj 200 242 s press;
#X obj 701 369 r press;
#X obj 136 413 s grid1;
#X obj 251 289 pack;
#X msg 251 354 values \$1 \$2;
#X obj 243 389 s grid2;
#X obj 354 330 s dist;
#X obj 627 199 vsl 15 100 0 55 0 0 empty empty distance 0 -9 0 10 -4160
-258113 -1 0 1;
#X text 522 182 inclinaison;
#X text 465 316 position;
#X obj 134 186 s boutons;
#X obj 438 28 r boutons;
#X obj 438 80 tgl 15 0 empty empty empty 17 7 0 10 -262144 -1 -1 0
1;
#X obj 486 78 tgl 15 0 empty empty empty 17 7 0 10 -262144 -1 -1 0
1;
#X obj 540 76 tgl 15 0 empty empty empty 17 7 0 10 -262144 -1 -1 0
1;
#X obj 381 267 != 0;
#X obj 354 291 spigot;
#X obj 354 245 t f f;
#X obj 665 210 r dist;
#X obj 438 51 route btn_10 btn_11 btn_12;
#X obj 251 328 spigot;
#X obj -76 504 r grid1;
#X obj 32 508 r grid2;
#X msg 160 582 /tablet/press \$1;
#X obj 160 561 r press;
#X obj 276 560 r dist;
#X msg 276 581 /tablet/dist \$1;
#X obj 336 103 s touch;
#X obj 421 116 s btn1;
#X obj 483 126 s btn2;
#X obj 384 559 r touch;
#X msg 384 580 /tablet/touch \$1;
#X msg 497 579 /tablet/btn1 \$1;
#X obj 497 558 r btn1;
#X obj 610 557 r btn2;
#X msg 610 578 /tablet/btn2 \$1;
#X msg -90 533 /tablet/posx \$1;
#X msg -76 555 /tablet/posy \$2;
#X msg 32 555 /tablet/tilty \$2;
#X msg 16 533 /tablet/tiltx \$1;
#X obj -105 -211 loadbang;
#X msg 4 77 1;
#X obj -106 -188 t b b b b;
#X text -116 446 Evoyer à supercollider via OSC (port 9050);
#X msg -106 468 connect 127.0.0.1 9050;
#X obj 618 -178 import mrpeach;
#X obj -90 615 cyclone/prepend send;
#X obj -90 639 mrpeach/packOSC;
#X obj -106 673 mrpeach/udpsend;
#X obj 211 -48 ggee/shell;
#X msg 211 -112 xinput --float "Wacom Intuos3 4x5 Pen stylus" && xinput
--float "Wacom Intuos3 4x5 Pen eraser" && xinput --float "Wacom Intuos3
4x5 Pen cursor" && xinput --float "Wacom Intuos3 4x5 Pad pad";
#X obj 522 199 unauthorized/grid grid2 100 0 127 100 0 127 0 1 1 10
10 522 299;
#X obj 465 334 unauthorized/grid grid1 200 0 27760 200 0 15694 0 1
1 10 10 637 422;
#X obj 260 242 + 64;
#X obj 302 241 + 64;
#X obj 302 261 * -1;
#X obj 302 283 + 127;
#X obj 97 91 hid/hid;
#X obj 596 -59 ggee/shell;
#X msg 596 -123 xinput --float "Wacom ISDv4 E6 Finger touch" && xinput
--float "Wacom ISDv4 E6 Pen stylus" && xinput --float "Wacom Intuos3
4x5 Pen eraser;
#X msg 355 -8 print;
#X obj 3 329 print;
#X text -296 271 comment;
#X obj 107 345 pack;
#X obj 145 299 -;
#X obj 140 246 t f f;
#X msg 201 92 close;
#X msg 129 271 15694;
#X msg 248 40 open 0x056a 0x00e6 1;
#X msg 276 137 refresh;
#X obj 98 205 route abs_x abs_y abs_pressure abs_tilt_x abs_tilt_y
abs_distance;
#X msg 97 30 open 0x056a 0x00e6;
#X msg 21 -65 open 5;
#X connect 0 0 65 0;
#X connect 2 0 69 0;
#X connect 2 0 78 0;
#X connect 2 1 18 0;
#X connect 4 0 10 0;
#X connect 9 0 7 0;
#X connect 11 0 28 0;
#X connect 12 0 13 0;
#X connect 19 0 27 0;
#X connect 23 0 24 1;
#X connect 23 0 28 1;
#X connect 24 0 14 0;
#X connect 25 0 24 0;
#X connect 25 1 23 0;
#X connect 26 0 15 0;
#X connect 27 0 20 0;
#X connect 27 0 35 0;
#X connect 27 1 21 0;
#X connect 27 1 36 0;
#X connect 27 2 22 0;
#X connect 27 2 37 0;
#X connect 28 0 12 0;
#X connect 29 0 44 0;
#X connect 29 0 45 0;
#X connect 30 0 47 0;
#X connect 30 0 46 0;
#X connect 31 0 54 0;
#X connect 32 0 31 0;
#X connect 33 0 34 0;
#X connect 34 0 54 0;
#X connect 38 0 39 0;
#X connect 39 0 54 0;
#X connect 40 0 54 0;
#X connect 41 0 40 0;
#X connect 42 0 43 0;
#X connect 43 0 54 0;
#X connect 44 0 54 0;
#X connect 45 0 54 0;
#X connect 46 0 54 0;
#X connect 47 0 54 0;
#X connect 48 0 50 0;
#X connect 49 0 65 0;
#X connect 50 0 52 0;
#X connect 50 1 49 0;
#X connect 50 2 58 0;
#X connect 50 3 80 0;
#X connect 52 0 56 0;
#X connect 54 0 55 0;
#X connect 55 0 56 0;
#X connect 58 0 57 0;
#X connect 61 0 11 0;
#X connect 62 0 63 0;
#X connect 63 0 64 0;
#X connect 64 0 11 1;
#X connect 65 0 2 0;
#X connect 65 1 3 0;
#X connect 67 0 66 0;
#X connect 68 0 65 0;
#X connect 71 0 4 0;
#X connect 72 0 71 1;
#X connect 73 0 75 0;
#X connect 73 1 72 1;
#X connect 74 0 65 0;
#X connect 75 0 72 0;
#X connect 76 0 65 0;
#X connect 77 0 65 0;
#X connect 78 0 71 0;
#X connect 78 1 73 0;
#X connect 78 2 8 0;
#X connect 78 3 61 0;
#X connect 78 4 62 0;
#X connect 78 5 25 0;
#X connect 79 0 65 0;
#X connect 80 0 65 0;
