#N canvas 343 143 1362 716 10;
#X msg 172 56 info;
#X msg 97 30 open 0x056a 0x00b0;
#X text 96 8 Pour ma Wacom Intuos 4 4X5;
#X obj 97 133 route abs key;
#X obj 112 112 print;
#X obj 97 205 route abs_x abs_y abs_pressure abs_tilt_x abs_tilt_y
abs_distance;
#X obj 136 318 pack;
#X msg 136 390 values \$1 \$2;
#X obj 157 271 * -1;
#X obj 157 293 + 20320;
#X text 240 -130 Linux seulement: déconnecter la tablette du pointeur.
;
#X obj 670 336 vsl 15 200 0 1023 0 0 empty empty Pression 0 -9 0 10
-4160 -258113 -4160 0 1;
#X obj 200 242 s press;
#X obj 701 369 r press;
#X obj 136 413 s grid1;
#X obj 251 289 pack;
#X msg 251 354 values \$1 \$2;
#X obj 243 389 s grid2;
#X obj 354 330 s dist;
#X obj 627 199 vsl 15 100 0 55 0 0 empty empty distance 0 -9 0 10 -4160
-258113 -1 0 1;
#X text 522 182 inclinaison;
#X text 465 316 position;
#X obj 134 186 s boutons;
#X obj 438 28 r boutons;
#X obj 438 80 tgl 15 0 empty empty empty 17 7 0 10 -262144 -1 -1 0
1;
#X obj 486 78 tgl 15 0 empty empty empty 17 7 0 10 -262144 -1 -1 0
1;
#X obj 540 76 tgl 15 0 empty empty empty 17 7 0 10 -262144 -1 -1 0
1;
#X obj 381 267 != 0;
#X obj 354 291 spigot;
#X obj 354 245 t f f;
#X obj 665 210 r dist;
#X obj 438 51 route btn_10 btn_11 btn_12;
#X obj 136 367 spigot;
#X obj 251 328 spigot;
#X obj 97 273 route 0;
#X text -296 271 Hack pour éviter la valeur 0 quand le stylet sort
de la zone.;
#X obj -76 504 r grid1;
#X obj 32 508 r grid2;
#X msg 160 582 /tablet/press \$1;
#X obj 160 561 r press;
#X obj 276 560 r dist;
#X msg 276 581 /tablet/dist \$1;
#X obj 336 103 s touch;
#X obj 421 116 s btn1;
#X obj 483 126 s btn2;
#X obj 384 559 r touch;
#X msg 384 580 /tablet/touch \$1;
#X msg 497 579 /tablet/btn1 \$1;
#X obj 497 558 r btn1;
#X obj 610 557 r btn2;
#X msg 610 578 /tablet/btn2 \$1;
#X msg -90 533 /tablet/posx \$1;
#X msg -76 555 /tablet/posy \$2;
#X msg 32 555 /tablet/tilty \$2;
#X msg 16 533 /tablet/tiltx \$1;
#X obj -105 -211 loadbang;
#X msg 4 77 1;
#X obj -106 -188 t b b b b;
#X text -116 446 Evoyer à supercollider via OSC (port 9050);
#X msg -106 468 connect 127.0.0.1 9050;
#X obj 618 -178 import mrpeach;
#X obj -90 615 cyclone/prepend send;
#X obj -90 639 mrpeach/packOSC;
#X obj -106 673 mrpeach/udpsend;
#X obj 211 -48 ggee/shell;
#X msg 211 -112 xinput --float "Wacom Intuos3 4x5 Pen stylus" && xinput
--float "Wacom Intuos3 4x5 Pen eraser" && xinput --float "Wacom Intuos3
4x5 Pen cursor" && xinput --float "Wacom Intuos3 4x5 Pad pad";
#X obj 522 199 unauthorized/grid grid2 100 0 127 100 0 127 0 1 1 10
10 522 299;
#X obj 465 334 unauthorized/grid grid1 200 0 25400 200 0 20320 0 1
1 10 10 522 368;
#X obj 260 242 + 64;
#X obj 302 241 + 64;
#X obj 302 261 * -1;
#X obj 302 283 + 127;
#X obj 97 91 hid/hid;
#X connect 0 0 72 0;
#X connect 1 0 72 0;
#X connect 3 0 5 0;
#X connect 3 1 22 0;
#X connect 5 0 34 0;
#X connect 5 1 8 0;
#X connect 5 2 12 0;
#X connect 5 3 68 0;
#X connect 5 4 69 0;
#X connect 5 5 29 0;
#X connect 6 0 32 0;
#X connect 7 0 14 0;
#X connect 8 0 9 0;
#X connect 9 0 6 1;
#X connect 13 0 11 0;
#X connect 15 0 33 0;
#X connect 16 0 17 0;
#X connect 23 0 31 0;
#X connect 27 0 28 1;
#X connect 27 0 32 1;
#X connect 27 0 33 1;
#X connect 28 0 18 0;
#X connect 29 0 28 0;
#X connect 29 1 27 0;
#X connect 30 0 19 0;
#X connect 31 0 24 0;
#X connect 31 0 42 0;
#X connect 31 1 25 0;
#X connect 31 1 43 0;
#X connect 31 2 26 0;
#X connect 31 2 44 0;
#X connect 32 0 7 0;
#X connect 33 0 16 0;
#X connect 34 1 6 0;
#X connect 36 0 51 0;
#X connect 36 0 52 0;
#X connect 37 0 54 0;
#X connect 37 0 53 0;
#X connect 38 0 61 0;
#X connect 39 0 38 0;
#X connect 40 0 41 0;
#X connect 41 0 61 0;
#X connect 45 0 46 0;
#X connect 46 0 61 0;
#X connect 47 0 61 0;
#X connect 48 0 47 0;
#X connect 49 0 50 0;
#X connect 50 0 61 0;
#X connect 51 0 61 0;
#X connect 52 0 61 0;
#X connect 53 0 61 0;
#X connect 54 0 61 0;
#X connect 55 0 57 0;
#X connect 56 0 72 0;
#X connect 57 0 59 0;
#X connect 57 1 56 0;
#X connect 57 2 65 0;
#X connect 57 3 1 0;
#X connect 59 0 63 0;
#X connect 61 0 62 0;
#X connect 62 0 63 0;
#X connect 65 0 64 0;
#X connect 68 0 15 0;
#X connect 69 0 70 0;
#X connect 70 0 71 0;
#X connect 71 0 15 1;
#X connect 72 0 3 0;
#X connect 72 1 4 0;
