#N canvas 913 87 514 550 10;
#N canvas 899 268 569 498 fromDuino 0;
#X obj -381 85 select 13 10 33;
#X obj -293 148 list prepend;
#X obj -294 116 makefilename %c;
#X obj -200 149 t l;
#X obj -381 117 bng 15 50 10 0 empty empty empty 0 -6 0 10 -262144
-1 -1;
#X obj -381 182 list append;
#X symbolatom -380 239 55 0 0 0 - - -;
#X obj -381 212 list2symbol;
#X symbolatom -294 198 10 0 0 0 - - -;
#X msg -294 175 symbol;
#X text -282 85 <-- end character end line select one!;
#X text -193 115 // change int to ascii;
#X text -169 149 // stores string;
#X text -493 182 // send string out;
#X text -222 196 // remove unwanted spaces;
#X obj -405 25 inlet;
#X obj -406 328 outlet;
#X obj -379 264 fromsymbol;
#X obj -235 174 loadbang;
#X connect 0 0 4 0;
#X connect 0 3 2 0;
#X connect 1 0 3 0;
#X connect 1 0 5 1;
#X connect 2 0 1 0;
#X connect 3 0 1 1;
#X connect 4 0 1 1;
#X connect 4 0 5 0;
#X connect 5 0 7 0;
#X connect 6 0 17 0;
#X connect 7 0 6 0;
#X connect 8 0 7 1;
#X connect 9 0 8 0;
#X connect 15 0 0 0;
#X connect 17 0 16 0;
#X connect 18 0 9 0;
#X restore 113 243 pd fromDuino;
#X obj 113 189 convert/pd2ascii CR;
#X msg 31 220 close;
#X obj 27 312 print;
#X floatatom 92 128 5 0 0 0 - - -;
#X floatatom 135 127 5 0 0 0 - - -;
#X msg 31 193 devices;
#X obj 94 160 bng 15 250 50 0 empty empty empty 17 7 0 10 -262144 -1
-1;
#X obj 113 160 pack;
#X obj 113 217 comport 1 115200;
#X obj 114 277 unpack 0 0;
#X floatatom 112 311 5 0 0 0 - - -;
#X floatatom 188 309 5 0 0 0 - - -;
#X obj 145 345 - 1023;
#X obj 145 371 abs;
#X obj 113 409 >> 2;
#X obj 147 409 >> 2;
#X obj 202 408 / 4;
#X obj 126 486 pack 0 0 0;
#X obj 126 508 send toDuino;
#X obj 252 113 receive toDuino;
#X obj 101 446 int;
#X obj 148 447 int;
#X obj 201 444 int;
#X msg 30 250 open 1;
#X connect 0 0 10 0;
#X connect 1 0 9 0;
#X connect 2 0 9 0;
#X connect 4 0 8 0;
#X connect 5 0 7 0;
#X connect 5 0 8 1;
#X connect 6 0 9 0;
#X connect 7 0 8 0;
#X connect 8 0 1 0;
#X connect 9 0 0 0;
#X connect 10 0 11 0;
#X connect 10 1 12 0;
#X connect 11 0 13 0;
#X connect 11 0 15 0;
#X connect 12 0 17 0;
#X connect 13 0 14 0;
#X connect 14 0 16 0;
#X connect 15 0 21 0;
#X connect 16 0 22 0;
#X connect 17 0 23 0;
#X connect 18 0 19 0;
#X connect 20 0 1 0;
#X connect 21 0 18 0;
#X connect 22 0 18 1;
#X connect 23 0 18 2;
#X connect 24 0 9 0;
