#N canvas 556 148 757 385 10;
#X obj 377 37 netreceive 1234;
#X text 478 37 TCP \, port 1234;
#X floatatom 377 65 5 0 0 0 - - -;
#X floatatom 379 231 5 0 0 0 - - -;
#X obj 379 203 netreceive 5678 1;
#X text 496 202 UDP \, port 1234;
#X obj 27 117 netsend;
#X msg 37 42 disconnect;
#X msg 33 197 disconnect;
#X obj 23 291 netsend 1;
#X text 90 291 UDP;
#X text 80 117 TCP;
#X floatatom 53 65 5 0 0 0 - - -;
#X msg 23 175 connect localhost 5678;
#X floatatom 27 140 5 0 0 0 - - -;
#X floatatom 23 313 5 0 0 0 - - -;
#X msg 55 90 send \$1;
#X text 250 63 recevoir ici ------>;
#X text 90 65 <--- changer ici;
#X floatatom 55 229 5 0 0 0 - - -;
#X msg 56 254 send \$1;
#X text 91 229 <--- changer ici;
#X text 249 230 recevoir ici ------>;
#X msg 26 20 connect 10.0.1.255 1234;
#X connect 0 0 2 0;
#X connect 4 0 3 0;
#X connect 6 0 14 0;
#X connect 7 0 6 0;
#X connect 8 0 9 0;
#X connect 9 0 15 0;
#X connect 12 0 16 0;
#X connect 13 0 9 0;
#X connect 16 0 6 0;
#X connect 19 0 20 0;
#X connect 20 0 9 0;
#X connect 23 0 6 0;
