#N canvas 295 362 613 300 10;
#X declare -lib mrpeach;
#X obj 123 123 hsl 128 15 0 255 0 0 empty empty empty -2 -8 0 10 -262144
-1 -1 0 1;
#X msg 108 71 disconnect;
#X obj 289 103 route /pot;
#X obj 290 143 unpack 0 0 s;
#X floatatom 324 171 5 0 0 0 - - -;
#X obj 413 20 import mrpeach;
#X obj 289 49 udpreceive 12000;
#X obj 289 73 unpackOSC;
#X msg 61 50 connect 10.10.10.1 10000;
#X msg 122 154 send /led \$1;
#X obj 51 196 sendOSC;
#X connect 0 0 9 0;
#X connect 1 0 10 0;
#X connect 2 0 3 0;
#X connect 3 1 4 0;
#X connect 6 0 7 0;
#X connect 7 0 2 0;
#X connect 8 0 10 0;
#X connect 9 0 10 0;
